<?xml version="1.0" encoding="utf-8"?>
<!-- Generator: Adobe Illustrator 19.1.1, SVG Export Plug-In . SVG Version: 6.00 Build 0)  -->
<svg version="1.1" id="Layer_1" xmlns="http://www.w3.org/2000/svg" xmlns:xlink="http://www.w3.org/1999/xlink" x="0px" y="0px"
	 viewBox="0 0 1200 1200" enable-background="new 0 0 1200 1200" xml:space="preserve">
<g>
	<g>
		<path fill="#2E4C59" d="M732.989,1133.112H470.751H208.514c-9.052,0-17.248-3.669-23.18-9.601
			c-5.932-5.932-9.601-14.128-9.601-23.18V600V99.67c0-9.052,3.669-17.248,9.601-23.18c5.932-5.932,14.128-9.601,23.18-9.601
			h262.237h262.237c9.052,0,17.248,3.669,23.18,9.601c5.932,5.932,9.601,14.128,9.601,23.18V600v500.331
			c0,9.052-3.669,17.248-9.601,23.18C750.236,1129.443,742.041,1133.112,732.989,1133.112z"/>
		<path fill="#2E4C59" d="M743.022,1150H470.751H198.479c-10.928,0-20.837-4.445-28.014-11.622
			c-7.177-7.177-11.622-17.085-11.622-28.011V600V89.633c0-10.926,4.445-20.834,11.622-28.011C177.642,54.445,187.551,50,198.479,50
			h272.272h272.272c10.929,0,20.839,4.445,28.017,11.622c7.178,7.177,11.623,17.085,11.623,28.011V600v510.367
			c0,10.926-4.445,20.834-11.623,28.011C763.862,1145.555,753.952,1150,743.022,1150z M198.479,83.781
			c-1.615,0-3.079,0.656-4.139,1.716c-1.06,1.06-1.717,2.523-1.717,4.136V600v510.367c0,1.613,0.656,3.076,1.717,4.136
			c1.06,1.06,2.524,1.716,4.139,1.716h272.272h272.272c1.615,0,3.08-0.656,4.141-1.716c1.061-1.06,1.718-2.523,1.718-4.136V600
			V89.633c0-1.613-0.657-3.076-1.718-4.136s-2.526-1.716-4.141-1.716H470.751H198.479z"/>
	</g>
	<path fill="#456671" d="M655.782,729.086c-56.244-8.551-85.043-23.794-99.902-39.283c-14.858-15.488-15.776-31.222-16.254-40.755
		c19.913-13.999,33.517-41.594,42.338-66.878c8.82-25.284,12.858-48.258,13.637-53.016l0.061-0.763l0.061-0.763
		c0-51.14-11.327-91.432-32.531-119.041s-52.284-42.536-91.791-42.944h-0.325h-0.325c-39.507,0.408-70.587,15.335-91.791,42.944
		c-21.204,27.609-32.531,67.901-32.531,119.041l0.061,0.763l0.061,0.763c0.78,4.758,4.817,27.732,13.637,53.016
		c8.82,25.284,22.424,52.878,42.338,66.878c-0.479,9.533-1.396,25.266-16.254,40.755c-14.858,15.488-43.658,30.731-99.902,39.283
		c-25.161,2.562-37.742,16.928-44.032,35.433c-6.29,18.504-6.29,41.146-6.29,60.257v4.731v4.731h117.677h117.677h9.571h9.571h107.78
		h107.78v-4.731v-4.731c0-19.111,0-41.753-6.29-60.257C693.524,746.014,680.943,731.648,655.782,729.086z"/>
	<g>
		<path fill="#EAEEEF" d="M175.732,970.243v70.061v70.061c0,6.282,2.546,11.969,6.663,16.085c4.117,4.117,9.803,6.663,16.085,6.663
			h272.271h272.271c6.282,0,11.968-2.546,16.085-6.663c4.116-4.116,6.662-9.803,6.662-16.085v-70.061v-70.061H470.751H175.732z"/>
		<path fill="#2E4C59" d="M743.022,1150H470.751H198.479c-10.928,0-20.837-4.445-28.014-11.622
			c-7.177-7.177-11.622-17.085-11.622-28.011v-70.062v-70.062c0-4.665,1.89-8.887,4.947-11.944
			c3.056-3.056,7.279-4.947,11.944-4.947h295.018h295.018c4.665,0,8.887,1.89,11.944,4.947c3.056,3.056,4.947,7.279,4.947,11.944
			v70.062v70.062c0,10.926-4.445,20.834-11.622,28.011S753.95,1150,743.022,1150z M192.623,987.133v61.617v61.617
			c0,1.613,0.656,3.076,1.717,4.136c1.06,1.06,2.524,1.716,4.139,1.716h272.272h272.272c1.615,0,3.079-0.656,4.139-1.716
			c1.06-1.06,1.717-2.523,1.717-4.136v-61.617v-61.617H470.751H192.623z"/>
	</g>
	<g>
		<polyline fill="#EAEEEF" points="567.871,1051.677 470.751,1051.677 373.631,1051.677 		"/>
		<path fill="#2E4C59" d="M567.87,1068.57h-97.12h-97.12c-4.665,0-8.887-1.89-11.944-4.947c-3.056-3.057-4.947-7.279-4.947-11.944
			s1.89-8.887,4.947-11.944c3.056-3.056,7.279-4.947,11.944-4.947h97.12h97.12c4.665,0,8.887,1.89,11.944,4.947
			c3.056,3.057,4.947,7.279,4.947,11.944s-1.89,8.887-4.947,11.944C576.758,1066.68,572.535,1068.57,567.87,1068.57z"/>
	</g>
	<path fill="#FFFFFF" d="M531.081,144.302h-60.33h-60.33c-4.665,0-8.887-1.89-11.944-4.947c-3.056-3.056-4.947-7.279-4.947-11.944
		c0-4.665,1.89-8.887,4.947-11.944s7.279-4.947,11.944-4.947h60.33h60.33c4.665,0,8.887,1.89,11.944,4.947
		c3.056,3.056,4.947,7.279,4.947,11.944c0,4.665-1.89,8.887-4.947,11.944C539.968,142.412,535.746,144.302,531.081,144.302z"/>
	<g>
		<path fill="#ABE1ED" d="M961.239,707.191H803.965H646.691l-49.544,41.455L547.602,790.1V541.828V293.555
			c0-17.405,7.055-33.163,18.461-44.569c11.406-11.406,27.164-18.461,44.569-18.461h175.303h175.303
			c17.405,0,33.163,7.055,44.569,18.461c11.406,11.406,18.461,27.164,18.461,44.569v175.303v175.303
			c0,17.405-7.055,33.163-18.461,44.569C994.401,700.136,978.644,707.191,961.239,707.191z"/>
		<path fill="#2E4C59" d="M547.599,806.993c-1.212,0-2.428-0.13-3.626-0.394c-1.198-0.264-2.378-0.661-3.52-1.196
			c-2.972-1.386-5.408-3.571-7.1-6.23c-1.692-2.659-2.642-5.791-2.642-9.07V541.827V293.552c0-22.033,8.963-42.013,23.435-56.485
			c14.472-14.471,34.453-23.435,56.488-23.435h175.302h175.302c22.033,0,42.013,8.963,56.485,23.435
			c14.471,14.471,23.435,34.451,23.435,56.485v175.304v175.304c0,22.033-8.963,42.013-23.435,56.485
			c-14.471,14.471-34.451,23.435-56.485,23.435H807.033H652.827l-47.193,39.488l-47.192,39.488
			c-1.551,1.296-3.289,2.281-5.126,2.942C551.479,806.657,549.543,806.993,547.599,806.993z M610.634,247.413
			c-12.721,0-24.256,5.174-32.611,13.529c-8.355,8.354-13.53,19.889-13.53,32.61v230.198v230.198l35.679-29.855l35.679-29.855
			c1.521-1.273,3.24-2.258,5.075-2.924s3.784-1.014,5.765-1.014h157.274h157.274c12.721,0,24.255-5.174,32.61-13.529
			c8.354-8.354,13.529-19.889,13.529-32.61V468.855V293.552c0-12.721-5.174-24.255-13.529-32.61
			c-8.354-8.354-19.889-13.529-32.61-13.529H785.936H610.634z"/>
	</g>
	<g opacity="0.2">
		<path fill="#2E4C59" d="M961.239,643.978H803.965H646.691l-49.544,41.455l-49.544,41.455v31.606V790.1l49.544-41.455
			l49.544-41.455h157.274h157.274c17.405,0,33.163-7.055,44.569-18.461s18.461-27.164,18.461-44.569v-31.607v-31.606
			c0,17.405-7.055,33.163-18.461,44.569S978.644,643.978,961.239,643.978z"/>
		<path fill="#2E4C59" d="M547.599,806.993c-1.212,0-2.428-0.13-3.626-0.394c-1.198-0.264-2.378-0.661-3.52-1.196
			c-2.972-1.386-5.408-3.571-7.1-6.23c-1.692-2.659-2.642-5.791-2.642-9.07v-31.607v-31.607c0-2.501,0.554-4.937,1.588-7.149
			s2.546-4.2,4.463-5.803l49.545-41.454l49.545-41.454c1.521-1.273,3.24-2.258,5.075-2.924s3.784-1.014,5.765-1.014h157.274h157.274
			c12.721,0,24.255-5.174,32.61-13.53c8.354-8.355,13.529-19.892,13.529-32.615c0-4.665,1.89-8.887,4.947-11.944
			c3.056-3.056,7.279-4.947,11.944-4.947s8.887,1.89,11.944,4.947c3.056,3.056,4.947,7.279,4.947,11.944v31.607v31.607
			c0,22.033-8.963,42.013-23.435,56.485c-14.471,14.471-34.451,23.435-56.485,23.435H807.033H652.827l-47.193,39.488l-47.192,39.488
			c-1.551,1.296-3.289,2.281-5.126,2.942C551.479,806.657,549.543,806.993,547.599,806.993z M564.492,734.78v9.583v9.583
			l35.679-29.855l35.679-29.855c1.521-1.273,3.24-2.258,5.075-2.924s3.784-1.014,5.765-1.014h157.274h157.274
			c12.377,0,23.633-4.899,31.927-12.86c8.295-7.961,13.629-18.984,14.165-31.233c-6.515,4.618-13.751,8.285-21.501,10.797
			c-7.75,2.512-16.016,3.87-24.591,3.87H807.031H652.824l-44.166,36.954L564.492,734.78z"/>
	</g>
	<path fill="#2E4C59" d="M843.603,363.252c-12.53,0-24.227,3.542-34.152,9.679s-18.076,14.867-23.516,25.245
		c-5.439-10.377-13.591-19.108-23.516-25.245s-21.622-9.679-34.152-9.679c-17.697,0-33.739,7.061-45.47,18.519
		c-11.731,11.458-19.15,27.313-19.599,44.901c0.712,27.851,22.451,60.143,47.439,88.241s53.226,52.003,66.936,63.078
		c2.44,1.971,5.401,2.956,8.362,2.956c2.961,0,5.922-0.985,8.362-2.956c13.71-11.075,41.948-34.979,66.936-63.078
		c24.988-28.098,46.727-60.39,47.439-88.241c-0.45-17.588-7.869-33.443-19.599-44.901
		C877.342,370.313,861.3,363.252,843.603,363.252z"/>
	<polygon fill="#456671" points="706.105,950.324 471.076,950.324 236.048,950.324 236.048,910.068 236.048,869.812 
		471.076,869.812 706.105,869.812 706.105,910.068 	"/>
</g>
</svg>
